<svg width="20" height="18" viewBox="0 0 20 18" fill="none" xmlns="http://www.w3.org/2000/svg">
<path d="M16.2308 1H18.3077C18.4913 1 18.6674 1.07294 18.7972 1.20277C18.9271 1.33261 19 1.5087 19 1.69231V12.7692C19 12.9528 18.9271 13.1289 18.7972 13.2588C18.6674 13.3886 18.4913 13.4615 18.3077 13.4615H1.69231C1.5087 13.4615 1.33261 13.3886 1.20277 13.2588C1.07294 13.1289 1 12.9528 1 12.7692V1.69231C1 1.5087 1.07294 1.33261 1.20277 1.20277C1.33261 1.07294 1.5087 1 1.69231 1H3.76923" stroke="#000001" stroke-linecap="round" stroke-linejoin="round"/>
<path d="M8.61538 13.4614L7.23077 16.923" stroke="#000001" stroke-linecap="round" stroke-linejoin="round"/>
<path d="M11.3846 13.4614L12.7692 16.923" stroke="#000001" stroke-linecap="round" stroke-linejoin="round"/>
<path d="M5.84615 16.9231H14.1538" stroke="#000001" stroke-linecap="round" stroke-linejoin="round"/>
<path d="M10 9.30769C12.2941 9.30769 14.1538 7.44795 14.1538 5.15385C14.1538 2.85974 12.2941 1 10 1C7.70589 1 5.84615 2.85974 5.84615 5.15385C5.84615 7.44795 7.70589 9.30769 10 9.30769Z" stroke="#000001" stroke-linecap="round" stroke-linejoin="round"/>
<path d="M7.06461 8.08903L12.9354 2.21826" stroke="#000001" stroke-linecap="round" stroke-linejoin="round"/>
</svg>
