<svg width="18" height="18" viewBox="0 0 18 18" fill="none" xmlns="http://www.w3.org/2000/svg">
<g clip-path="url(#clip0_2702_1715)">
<path d="M12.8571 3.85718H5.14285C4.43277 3.85718 3.85714 4.43281 3.85714 5.14289V12.8572C3.85714 13.5673 4.43277 14.1429 5.14285 14.1429H12.8571C13.5672 14.1429 14.1429 13.5673 14.1429 12.8572V5.14289C14.1429 4.43281 13.5672 3.85718 12.8571 3.85718Z" stroke="#000001" stroke-width="1.28571" stroke-linecap="round" stroke-linejoin="round"/>
<path d="M6.42857 3.85711V0.642822" stroke="#000001" stroke-width="1.28571" stroke-linecap="round" stroke-linejoin="round"/>
<path d="M11.5714 3.85711V0.642822" stroke="#000001" stroke-width="1.28571" stroke-linecap="round" stroke-linejoin="round"/>
<path d="M3.85715 11.5715H0.64286" stroke="#000001" stroke-width="1.28571" stroke-linecap="round" stroke-linejoin="round"/>
<path d="M3.85715 6.42847H0.64286" stroke="#000001" stroke-width="1.28571" stroke-linecap="round" stroke-linejoin="round"/>
<path d="M11.5714 14.1428V17.3571" stroke="#000001" stroke-width="1.28571" stroke-linecap="round" stroke-linejoin="round"/>
<path d="M6.42857 14.1428V17.3571" stroke="#000001" stroke-width="1.28571" stroke-linecap="round" stroke-linejoin="round"/>
<path d="M14.1429 6.42847H17.3571" stroke="#000001" stroke-width="1.28571" stroke-linecap="round" stroke-linejoin="round"/>
<path d="M14.1429 11.5715H17.3571" stroke="#000001" stroke-width="1.28571" stroke-linecap="round" stroke-linejoin="round"/>
<path d="M10.9286 9.64282H8.35714" stroke="#000001" stroke-width="1.28571" stroke-linecap="round" stroke-linejoin="round"/>
</g>
<defs>
<clipPath id="clip0_2702_1715">
<rect width="18" height="18" fill="white"/>
</clipPath>
</defs>
</svg>
