<svg width="18" height="18" viewBox="0 0 18 18" fill="none" xmlns="http://www.w3.org/2000/svg">
<g clip-path="url(#clip0_2716_1619)">
<path d="M13.5 0.642822H16.0714C16.4124 0.642822 16.7394 0.778281 16.9806 1.0194C17.2217 1.26052 17.3571 1.58754 17.3571 1.92854V4.49997" stroke="#000001" stroke-width="1.28571" stroke-linecap="round" stroke-linejoin="round"/>
<path d="M0.642858 4.49997V1.92854C0.642858 1.58754 0.778316 1.26052 1.01943 1.0194C1.26055 0.778281 1.58758 0.642822 1.92857 0.642822H4.5" stroke="#000001" stroke-width="1.28571" stroke-linecap="round" stroke-linejoin="round"/>
<path d="M13.5 17.3571H16.0714C16.4124 17.3571 16.7394 17.2217 16.9806 16.9806C17.2217 16.7394 17.3571 16.4124 17.3571 16.0714V13.5" stroke="#000001" stroke-width="1.28571" stroke-linecap="round" stroke-linejoin="round"/>
<path d="M0.642858 13.5V16.0714C0.642858 16.4124 0.778316 16.7394 1.01943 16.9806C1.26055 17.2217 1.58758 17.3571 1.92857 17.3571H4.5" stroke="#000001" stroke-width="1.28571" stroke-linecap="round" stroke-linejoin="round"/>
</g>
<defs>
<clipPath id="clip0_2716_1619">
<rect width="18" height="18" fill="white"/>
</clipPath>
</defs>
</svg>
