<svg width="18" height="18" viewBox="0 0 18 18" fill="none" xmlns="http://www.w3.org/2000/svg">
<g clip-path="url(#clip0_2702_1734)">
<path d="M12.2143 13.5V16.0714C12.2143 16.4124 12.0788 16.7394 11.8377 16.9805C11.5966 17.2216 11.2696 17.3571 10.9286 17.3571H1.92857C1.58758 17.3571 1.26055 17.2216 1.01943 16.9805C0.778315 16.7394 0.642857 16.4124 0.642857 16.0714V1.92854C0.642857 1.58754 0.778315 1.26052 1.01943 1.0194C1.26055 0.778281 1.58758 0.642822 1.92857 0.642822H10.9286C11.2696 0.642822 11.5966 0.778281 11.8377 1.0194C12.0788 1.26052 12.2143 1.58754 12.2143 1.92854V4.49997" stroke="#000001" stroke-width="1.28571" stroke-linecap="round" stroke-linejoin="round"/>
<path d="M8.35714 9H17.3571" stroke="#000001" stroke-width="1.28571" stroke-linecap="round" stroke-linejoin="round"/>
<path d="M14.7857 6.42847L17.3571 8.9999L14.7857 11.5713" stroke="#000001" stroke-width="1.28571" stroke-linecap="round" stroke-linejoin="round"/>
</g>
<defs>
<clipPath id="clip0_2702_1734">
<rect width="18" height="18" fill="white"/>
</clipPath>
</defs>
</svg>
