<svg width="18" height="18" viewBox="0 0 18 18" fill="none" xmlns="http://www.w3.org/2000/svg">
<g clip-path="url(#clip0_2765_1629)">
<path d="M3.85715 6.65991V11.9828" stroke="#000001" stroke-width="1.28571" stroke-linecap="round" stroke-linejoin="round"/>
<path d="M9 6.65991V11.9828" stroke="#000001" stroke-width="1.28571" stroke-linecap="round" stroke-linejoin="round"/>
<path d="M6.42857 7.80396V10.8382" stroke="#000001" stroke-width="1.28571" stroke-linecap="round" stroke-linejoin="round"/>
<path d="M14.1429 6.65991V11.9828" stroke="#000001" stroke-width="1.28571" stroke-linecap="round" stroke-linejoin="round"/>
<path d="M11.5714 7.80396V10.8382" stroke="#000001" stroke-width="1.28571" stroke-linecap="round" stroke-linejoin="round"/>
<path d="M0.642853 5.14282V1.92854C0.642853 1.58754 0.778312 1.26052 1.01943 1.0194C1.26055 0.778281 1.58757 0.642822 1.92857 0.642822H5.14285" stroke="#000001" stroke-width="1.28571" stroke-linecap="round" stroke-linejoin="round"/>
<path d="M17.3571 5.14282V1.92854C17.3571 1.58754 17.2217 1.26052 16.9806 1.0194C16.7395 0.778281 16.4124 0.642822 16.0714 0.642822H12.8571" stroke="#000001" stroke-width="1.28571" stroke-linecap="round" stroke-linejoin="round"/>
<path d="M0.642853 12.8572V16.0715C0.642853 16.4125 0.778312 16.7395 1.01943 16.9806C1.26055 17.2217 1.58757 17.3572 1.92857 17.3572H5.14285" stroke="#000001" stroke-width="1.28571" stroke-linecap="round" stroke-linejoin="round"/>
<path d="M17.3571 12.8572V16.0715C17.3571 16.4125 17.2217 16.7395 16.9806 16.9806C16.7395 17.2217 16.4124 17.3572 16.0714 17.3572H12.8571" stroke="#000001" stroke-width="1.28571" stroke-linecap="round" stroke-linejoin="round"/>
</g>
<defs>
<clipPath id="clip0_2765_1629">
<rect width="18" height="18" fill="white"/>
</clipPath>
</defs>
</svg>
