<svg width="18" height="18" viewBox="0 0 18 18" fill="none" xmlns="http://www.w3.org/2000/svg">
<path d="M0.642853 9.10263H3.45857C3.57712 9.10126 3.69319 9.0684 3.79486 9.00739C3.89653 8.94639 3.98014 8.85945 4.03714 8.75548L6.35142 4.12691C6.40846 4.01167 6.49939 3.91664 6.61201 3.85459C6.72463 3.79254 6.85354 3.76643 6.98142 3.77977C7.1088 3.78838 7.23038 3.83628 7.32939 3.91687C7.42841 3.99747 7.49999 4.10679 7.53428 4.22977L10.4014 13.7698C10.439 13.8992 10.5164 14.0135 10.6225 14.0965C10.7286 14.1796 10.8582 14.2272 10.9929 14.2326C11.119 14.2284 11.2412 14.1872 11.3441 14.114C11.447 14.0409 11.526 13.939 11.5714 13.8212L13.3329 9.51405C13.3814 9.39323 13.4647 9.28958 13.5723 9.21631C13.68 9.14304 13.8069 9.10347 13.9371 9.10263H17.3571" stroke="#000001" stroke-width="1.28571" stroke-linecap="round" stroke-linejoin="round"/>
</svg>
