<svg width="18" height="18" viewBox="0 0 18 18" fill="none" xmlns="http://www.w3.org/2000/svg">
<path d="M6.42856 7.71418C8.02624 7.71418 9.32142 6.419 9.32142 4.82132C9.32142 3.22364 8.02624 1.92847 6.42856 1.92847C4.83088 1.92847 3.53571 3.22364 3.53571 4.82132C3.53571 6.419 4.83088 7.71418 6.42856 7.71418Z" stroke="#000001" stroke-width="1.28571" stroke-linecap="round" stroke-linejoin="round"/>
<path d="M12.2143 17.3571H0.642853V16.0714C0.642853 14.5369 1.25242 13.0653 2.33745 11.9802C3.42248 10.8952 4.8941 10.2856 6.42857 10.2856C7.96303 10.2856 9.43465 10.8952 10.5197 11.9802C11.6047 13.0653 12.2143 14.5369 12.2143 16.0714V17.3571Z" stroke="#000001" stroke-width="1.28571" stroke-linecap="round" stroke-linejoin="round"/>
<path d="M11.5714 1.92847C12.3387 1.92847 13.0745 2.23325 13.617 2.77576C14.1595 3.31828 14.4643 4.05409 14.4643 4.82132C14.4643 5.58856 14.1595 6.32437 13.617 6.86688C13.0745 7.4094 12.3387 7.71418 11.5714 7.71418" stroke="#000001" stroke-width="1.28571" stroke-linecap="round" stroke-linejoin="round"/>
<path d="M13.6286 10.53C14.7238 10.9467 15.6667 11.686 16.3325 12.6503C16.9983 13.6145 17.3556 14.7582 17.3571 15.93V17.3572H15.4286" stroke="#000001" stroke-width="1.28571" stroke-linecap="round" stroke-linejoin="round"/>
</svg>
