<svg width="18" height="18" viewBox="0 0 18 18" fill="none" xmlns="http://www.w3.org/2000/svg">
<g clip-path="url(#clip0_2702_1728)">
<path d="M9 10.2857C10.7752 10.2857 12.2143 8.84666 12.2143 7.07146C12.2143 5.29626 10.7752 3.85718 9 3.85718C7.2248 3.85718 5.78571 5.29626 5.78571 7.07146C5.78571 8.84666 7.2248 10.2857 9 10.2857Z" stroke="#000001" stroke-width="1.28571" stroke-linecap="round" stroke-linejoin="round"/>
<path d="M3.51 15.3C4.08374 14.3583 4.89009 13.5799 5.85155 13.0398C6.81301 12.4997 7.89723 12.2161 9 12.2161C10.1028 12.2161 11.187 12.4997 12.1484 13.0398C13.1099 13.5799 13.9163 14.3583 14.49 15.3" stroke="#000001" stroke-width="1.28571" stroke-linecap="round" stroke-linejoin="round"/>
<path d="M9 17.3571C13.6155 17.3571 17.3571 13.6155 17.3571 8.99996C17.3571 4.38444 13.6155 0.642822 9 0.642822C4.38448 0.642822 0.642857 4.38444 0.642857 8.99996C0.642857 13.6155 4.38448 17.3571 9 17.3571Z" stroke="#000001" stroke-width="1.28571" stroke-linecap="round" stroke-linejoin="round"/>
</g>
<defs>
<clipPath id="clip0_2702_1728">
<rect width="18" height="18" fill="white"/>
</clipPath>
</defs>
</svg>
