<svg width="18" height="18" viewBox="0 0 18 18" fill="none" xmlns="http://www.w3.org/2000/svg">
<g clip-path="url(#clip0_2720_1626)">
<path d="M14.1429 11.5713L16.7143 10.9285L17.3571 13.4999" stroke="#000001" stroke-width="1.28571" stroke-linecap="round" stroke-linejoin="round"/>
<path d="M16.7143 10.9285C16.1432 12.5467 15.1059 13.9596 13.7331 14.9893C12.3603 16.0189 10.7134 16.6191 9 16.7142C7.41615 16.7145 5.87059 16.2272 4.57327 15.3186C3.27594 14.41 2.28972 13.1241 1.74857 11.6356" stroke="#000001" stroke-width="1.28571" stroke-linecap="round" stroke-linejoin="round"/>
<path d="M3.85715 6.42857L1.28572 7.07143L0.64286 4.5" stroke="#000001" stroke-width="1.28571" stroke-linecap="round" stroke-linejoin="round"/>
<path d="M1.28571 7.07136C2.36571 4.11422 5.68286 1.28564 9 1.28564C10.5916 1.29012 12.1428 1.78676 13.441 2.70749C14.7392 3.62821 15.7209 4.92795 16.2514 6.4285" stroke="#000001" stroke-width="1.28571" stroke-linecap="round" stroke-linejoin="round"/>
</g>
<defs>
<clipPath id="clip0_2720_1626">
<rect width="18" height="18" fill="white"/>
</clipPath>
</defs>
</svg>
