<svg width="18" height="18" viewBox="0 0 18 18" fill="none" xmlns="http://www.w3.org/2000/svg">
<g clip-path="url(#clip0_2777_1609)">
<path d="M17.3571 9.64282H0.642857V17.3571H17.3571V9.64282Z" stroke="#000001" stroke-width="1.28571" stroke-linecap="round" stroke-linejoin="round"/>
<path d="M9 0.642633C9 0.642633 10.9286 3.85692 8.35714 5.14263C7.07143 5.78549 5.14286 3.85692 5.14286 3.85692C4.85332 4.49044 4.73044 5.18743 4.78587 5.88177C4.8413 6.57611 5.07321 7.24478 5.45958 7.82434C5.84596 8.4039 6.374 8.87515 6.99361 9.19337C7.61322 9.51159 8.30385 9.66623 9 9.64263C9.59874 9.67207 10.197 9.57583 10.7563 9.3601C11.3156 9.14437 11.8235 8.81393 12.2474 8.39005C12.6713 7.96617 13.0017 7.45823 13.2175 6.89893C13.4332 6.33964 13.5294 5.74137 13.5 5.14263C13.5294 4.5439 13.4332 3.94563 13.2175 3.38633C13.0017 2.82703 12.6713 2.3191 12.2474 1.89522C11.8235 1.47134 11.3156 1.1409 10.7563 0.925166C10.197 0.709435 9.59874 0.613193 9 0.642633Z" stroke="#000001" stroke-width="1.28571" stroke-linecap="round" stroke-linejoin="round"/>
<path d="M0.642857 13.5H17.3571" stroke="#000001" stroke-width="1.28571" stroke-linecap="round" stroke-linejoin="round"/>
<path d="M7.07143 13.5V17.3571" stroke="#000001" stroke-width="1.28571" stroke-linecap="round" stroke-linejoin="round"/>
<path d="M10.9286 9.64282V13.5" stroke="#000001" stroke-width="1.28571" stroke-linecap="round" stroke-linejoin="round"/>
</g>
<defs>
<clipPath id="clip0_2777_1609">
<rect width="18" height="18" fill="white"/>
</clipPath>
</defs>
</svg>
