<svg width="18" height="18" viewBox="0 0 18 18" fill="none" xmlns="http://www.w3.org/2000/svg">
<g clip-path="url(#clip0_2703_1697)">
<path d="M6.72428 2.89282L7.27714 1.46568C7.37038 1.22405 7.53442 1.01621 7.74777 0.869381C7.96113 0.722554 8.21386 0.643587 8.47285 0.642822H9.52714C9.78614 0.643587 10.0389 0.722554 10.2522 0.869381C10.4656 1.01621 10.6296 1.22405 10.7229 1.46568L11.2757 2.89282L13.1529 3.97282L14.67 3.74139C14.9226 3.7071 15.1797 3.74869 15.4087 3.86087C15.6376 3.97304 15.828 4.15075 15.9557 4.37139L16.47 5.27139C16.6018 5.49556 16.6625 5.75441 16.6441 6.01379C16.6258 6.27317 16.5292 6.52089 16.3671 6.72425L15.4286 7.91996V10.08L16.3929 11.2757C16.5549 11.479 16.6515 11.7268 16.6698 11.9861C16.6882 12.2455 16.6275 12.5044 16.4957 12.7285L15.9814 13.6285C15.8537 13.8492 15.6633 14.0269 15.4344 14.1391C15.2054 14.2512 14.9483 14.2928 14.6957 14.2585L13.1786 14.0271L11.3014 15.1071L10.7486 16.5343C10.6553 16.7759 10.4913 16.9837 10.2779 17.1305C10.0646 17.2774 9.81185 17.3563 9.55285 17.3571H8.47285C8.21386 17.3563 7.96113 17.2774 7.74777 17.1305C7.53442 16.9837 7.37038 16.7759 7.27714 16.5343L6.72428 15.1071L4.84714 14.0271L3.33 14.2585C3.07738 14.2928 2.82026 14.2512 2.59133 14.1391C2.3624 14.0269 2.17198 13.8492 2.04428 13.6285L1.53 12.7285C1.39821 12.5044 1.3375 12.2455 1.35586 11.9861C1.37422 11.7268 1.4708 11.479 1.63285 11.2757L2.57143 10.08V7.91996L1.60714 6.72425C1.44509 6.52089 1.34851 6.27317 1.33015 6.01379C1.31178 5.75441 1.3725 5.49556 1.50428 5.27139L2.01857 4.37139C2.14627 4.15075 2.33669 3.97304 2.56562 3.86087C2.79455 3.74869 3.05166 3.7071 3.30428 3.74139L4.82143 3.97282L6.72428 2.89282ZM6.42857 8.99997C6.42857 9.50855 6.57938 10.0057 6.86193 10.4286C7.14448 10.8514 7.54609 11.181 8.01595 11.3757C8.48582 11.5703 9.00285 11.6212 9.50166 11.522C10.0005 11.4228 10.4587 11.1779 10.8183 10.8182C11.1779 10.4586 11.4228 10.0004 11.522 9.50163C11.6212 9.00282 11.5703 8.48579 11.3757 8.01592C11.1811 7.54605 10.8515 7.14445 10.4286 6.8619C10.0057 6.57935 9.50858 6.42854 9 6.42854C8.31801 6.42854 7.66396 6.69945 7.18172 7.18169C6.69949 7.66393 6.42857 8.31798 6.42857 8.99997V8.99997Z" stroke="#000001" stroke-width="1.28571" stroke-linecap="round" stroke-linejoin="round"/>
</g>
<defs>
<clipPath id="clip0_2703_1697">
<rect width="18" height="18" fill="white"/>
</clipPath>
</defs>
</svg>
