<svg width="18" height="18" viewBox="0 0 18 18" fill="none" xmlns="http://www.w3.org/2000/svg">
<g clip-path="url(#clip0_2707_1612)">
<path d="M16.0714 1.28564H1.92857C1.21849 1.28564 0.642853 1.86128 0.642853 2.57136V7.71422C0.642853 8.4243 1.21849 8.99993 1.92857 8.99993H16.0714C16.7815 8.99993 17.3571 8.4243 17.3571 7.71422V2.57136C17.3571 1.86128 16.7815 1.28564 16.0714 1.28564Z" stroke="#000001" stroke-linecap="round" stroke-linejoin="round"/>
<path d="M4.49999 5.78571C4.85503 5.78571 5.14285 5.4979 5.14285 5.14286C5.14285 4.78782 4.85503 4.5 4.49999 4.5C4.14495 4.5 3.85713 4.78782 3.85713 5.14286C3.85713 5.4979 4.14495 5.78571 4.49999 5.78571Z" stroke="#000001" stroke-linecap="round" stroke-linejoin="round"/>
<path d="M9.64285 5.14282H14.1429" stroke="#000001" stroke-linecap="round" stroke-linejoin="round"/>
<path d="M1.92857 9C1.58757 9 1.26055 9.13546 1.01943 9.37658C0.778312 9.6177 0.642853 9.94472 0.642853 10.2857V15.4286C0.642853 15.7696 0.778312 16.0966 1.01943 16.3377C1.26055 16.5788 1.58757 16.7143 1.92857 16.7143H16.0714C16.4124 16.7143 16.7394 16.5788 16.9806 16.3377C17.2217 16.0966 17.3571 15.7696 17.3571 15.4286V10.2857C17.3571 9.94472 17.2217 9.6177 16.9806 9.37658C16.7394 9.13546 16.4124 9 16.0714 9" stroke="#000001" stroke-linecap="round" stroke-linejoin="round"/>
<path d="M4.49999 13.4998C4.85503 13.4998 5.14285 13.212 5.14285 12.857C5.14285 12.5019 4.85503 12.2141 4.49999 12.2141C4.14495 12.2141 3.85713 12.5019 3.85713 12.857C3.85713 13.212 4.14495 13.4998 4.49999 13.4998Z" stroke="#000001" stroke-linecap="round" stroke-linejoin="round"/>
<path d="M9.64285 12.8572H14.1429" stroke="#000001" stroke-linecap="round" stroke-linejoin="round"/>
</g>
<defs>
<clipPath id="clip0_2707_1612">
<rect width="18" height="18" fill="white"/>
</clipPath>
</defs>
</svg>
